<svg fill="none" height="258" viewBox="0 0 442 258" width="442" xmlns="http://www.w3.org/2000/svg">
    <rect fill="white" height="258" width="442"/>
    <rect fill="#444444" height="20" width="60" x="297" y="66"/>
    <rect fill="#444444" height="20" width="60" x="23" y="66"/>
    <rect fill="#444444" height="20" transform="rotate(90 43 164)" width="77" x="43" y="164"/>
    <rect fill="#444444" height="20" transform="rotate(90 43 66)" width="78" x="43" y="66"/>
    <rect fill="#444444" height="20" width="60" x="23" y="221"/>
    <rect fill="#444444" height="20" transform="rotate(-180 197 241)" width="60" x="197" y="241"/>
    <rect fill="#444444" height="20" transform="rotate(-90 177 144)" width="78" x="177" y="144"/>
    <rect fill="#444444" height="20" transform="rotate(-90 177 241)" width="78" x="177" y="241"/>
    <rect fill="#E93131" height="20" transform="rotate(-90 100 124)" width="58" x="100" y="124"/>
    <rect fill="#E93131" height="20" transform="rotate(-90 100 244)" width="58" x="100" y="244"/>
    <rect fill="#444444" height="20" transform="rotate(-180 197 86)" width="60" x="197" y="86"/>
    <rect fill="#444444" height="20" transform="rotate(90 357 66)" width="90" x="357" y="66"/>
    <rect fill="#444444" height="20" transform="rotate(90 317 66)" width="49" x="317" y="66"/>
    <rect fill="#444444" height="20" transform="rotate(90 417 124)" width="60" x="417" y="124"/>
    <rect fill="#444444" height="20" transform="rotate(-180 417 184)" width="60" x="417" y="184"/>
    <rect fill="#444444" height="20" transform="rotate(-180 177 164)" width="77" x="177" y="164"/>
    <rect fill="#444444" height="20" transform="rotate(-180 417 144)" width="49" x="417" y="144"/>
    <rect fill="#444444" height="20" transform="rotate(-90 237 184)" width="60" x="237" y="184"/>
    <rect fill="#E93131" height="20" transform="rotate(-90 61 204)" width="99" x="61" y="204"/>
    <rect fill="#444444" height="20" width="60" x="237" y="124"/>
    <rect fill="#444444" height="20" width="49" x="237" y="164"/>
    <rect fill="#E93131" height="20" width="59" x="61" y="105"/>
    <rect fill="#E93131" height="20" width="59" x="61" y="184"/>
    <rect fill="#444444" height="20" transform="rotate(-180 357 246)" width="60" x="357" y="246"/>
    <rect fill="#444444" height="20" transform="rotate(-90 297 246)" width="90" x="297" y="246"/>
    <rect fill="#444444" height="20" transform="rotate(-90 337 246)" width="49" x="337" y="246"/>
    <rect fill="#444444" height="20" transform="rotate(90 327 124)" width="20" x="327" y="124"/>
    <rect fill="#444444" height="20" transform="rotate(90 271 80)" width="20" x="271" y="80"/>
    <rect fill="#444444" height="20" transform="rotate(90 347 166)" width="20" x="347" y="166"/>
    <rect fill="#444444" height="20" transform="rotate(90 379 207)" width="20" x="379" y="207"/>
    <rect fill="#FF5F5F" height="20" transform="rotate(90 399 206)" width="20" x="399" y="206"/>
    <rect fill="#444444" height="20" transform="rotate(90 399 226)" width="20" x="399" y="226"/>
    <rect fill="#444444" height="20" transform="rotate(90 419 207)" width="20" x="419" y="207"/>
    <rect fill="#444444" height="20" transform="rotate(90 399 187)" width="20" x="399" y="187"/>
    <rect height="44" stroke="#444444" stroke-width="5" width="44" x="239.5" y="68.5"/>
    <rect fill="#444444" height="20" transform="rotate(90 271 211)" width="20" x="271" y="211"/>
    <rect height="44" stroke="#444444" stroke-width="5" width="44" x="239.5" y="199.5"/>
    <rect fill="#444444" height="20" transform="rotate(90 402 80)" width="20" x="402" y="80"/>
    <rect fill="#444444" height="20" transform="rotate(90 157 105)" width="20" x="157" y="105"/>
    <rect fill="#444444" height="20" transform="rotate(90 157 181)" width="20" x="157" y="181"/>
    <rect height="44" stroke="#444444" stroke-width="5" width="44" x="370.5" y="68.5"/>
    <path
        d="M61.4412 48V12.954H75.5892C78.2892 12.954 80.5302 13.377 82.3122 14.223C84.0942 15.051 85.4262 16.167 86.3082 17.571C87.1902 18.975 87.6312 20.532 87.6312 22.242C87.6312 24.222 87.0732 25.914 85.9572 27.318C84.8592 28.722 83.3112 29.712 81.3132 30.288C82.6272 30.558 83.8062 31.053 84.8502 31.773C85.8942 32.493 86.7132 33.402 87.3072 34.5C87.9192 35.598 88.2252 36.858 88.2252 38.28C88.2252 39.396 88.0272 40.521 87.6312 41.655C87.2532 42.789 86.5872 43.842 85.6332 44.814C84.6972 45.768 83.4102 46.542 81.7722 47.136C80.1522 47.712 78.1092 48 75.6432 48H61.4412ZM67.8132 42.438H75.4812C77.5152 42.438 79.0002 42.033 79.9362 41.223C80.8902 40.395 81.3672 39.288 81.3672 37.902C81.3672 36.516 80.8812 35.409 79.9092 34.581C78.9372 33.735 77.4612 33.312 75.4812 33.312H67.8132V42.438ZM67.8132 18.462V27.75H75.3192C77.2092 27.75 78.6402 27.336 79.6122 26.508C80.6022 25.662 81.0972 24.51 81.0972 23.052C81.0972 21.666 80.6112 20.559 79.6392 19.731C78.6852 18.885 77.2632 18.462 75.3732 18.462H67.8132ZM100.457 48V12.954H106.829V48H100.457ZM116.428 12.954H123.556L132.034 42.384H130.414L138.784 15.276H143.104L151.798 41.952H150.34L159.25 12.954H166.432L154.39 48H147.694L140.836 27.318H141.43L134.572 48H127.876L116.428 12.954ZM170.013 48L181.947 12.954H189.939L201.387 48H194.691L192.261 40.44H179.247L176.763 48H170.013ZM180.867 35.634H190.749L185.835 20.568L180.867 35.634ZM224.394 48.756C221.316 48.756 218.634 48.027 216.348 46.569C214.08 45.093 212.316 42.987 211.056 40.251C209.796 37.515 209.166 34.23 209.166 30.396C209.166 26.436 209.814 23.115 211.11 20.433C212.424 17.733 214.224 15.699 216.51 14.331C218.814 12.945 221.442 12.252 224.394 12.252C228.48 12.252 231.666 13.242 233.952 15.222C236.256 17.202 237.732 19.776 238.38 22.944L231.576 24.186C231.018 22.35 230.127 20.865 228.903 19.731C227.679 18.597 226.176 18.03 224.394 18.03C222.828 18.03 221.415 18.489 220.155 19.407C218.895 20.307 217.887 21.675 217.131 23.511C216.393 25.347 216.024 27.642 216.024 30.396C216.024 32.988 216.348 35.22 216.996 37.092C217.662 38.964 218.616 40.404 219.858 41.412C221.1 42.42 222.612 42.924 224.394 42.924C226.68 42.924 228.444 42.321 229.686 41.115C230.946 39.891 231.576 38.334 231.576 36.444H238.38C238.38 39.054 237.813 41.277 236.679 43.113C235.563 44.931 233.961 46.326 231.873 47.298C229.785 48.27 227.292 48.756 224.394 48.756ZM263.267 48.756C260.153 48.756 257.399 48.072 255.005 46.704C252.629 45.336 250.766 43.293 249.416 40.575C248.066 37.857 247.391 34.482 247.391 30.45C247.391 26.346 248.066 22.953 249.416 20.271C250.766 17.571 252.629 15.564 255.005 14.25C257.399 12.918 260.153 12.252 263.267 12.252C266.399 12.252 269.162 12.936 271.556 14.304C273.95 15.654 275.822 17.679 277.172 20.379C278.522 23.079 279.197 26.436 279.197 30.45C279.197 34.536 278.522 37.938 277.172 40.656C275.822 43.374 273.95 45.408 271.556 46.758C269.162 48.09 266.399 48.756 263.267 48.756ZM263.267 42.978C266.129 42.978 268.397 41.898 270.071 39.738C271.763 37.578 272.609 34.464 272.609 30.396C272.609 26.472 271.763 23.421 270.071 21.243C268.397 19.065 266.129 17.976 263.267 17.976C260.459 17.976 258.209 19.074 256.517 21.27C254.825 23.448 253.979 26.508 253.979 30.45C253.979 34.5 254.825 37.605 256.517 39.765C258.209 41.907 260.459 42.978 263.267 42.978ZM290.736 12.954H302.076C305.64 12.954 308.763 13.674 311.445 15.114C314.127 16.536 316.215 18.561 317.709 21.189C319.203 23.817 319.95 26.922 319.95 30.504C319.95 34.05 319.203 37.137 317.709 39.765C316.215 42.375 314.127 44.4 311.445 45.84C308.763 47.28 305.64 48 302.076 48H290.736V12.954ZM297.108 18.732V42.276H302.076C304.344 42.276 306.297 41.763 307.935 40.737C309.591 39.711 310.86 38.316 311.742 36.552C312.642 34.77 313.092 32.754 313.092 30.504C313.092 28.218 312.642 26.193 311.742 24.429C310.86 22.665 309.591 21.279 307.935 20.271C306.297 19.245 304.344 18.732 302.076 18.732H297.108ZM331.754 48V12.954H354.272V18.462H338.126V27.696H353.3V33.204H338.126V42.438H354.272V48H331.754ZM373.982 21.486H380.354V31.962H390.884V37.524H380.354V48H373.982V37.524H363.452V31.962H373.982V21.486Z"
        fill="#444444"/>
</svg>
